<?xml version="1.0" encoding="UTF-8"?>
<level>
  <owner>Fistachka</owner>
  <repo>macaron</repo>
  <version>v1.0.1</version>
  <next number="1" owner="stolbitsa" repo="subdominant"/>
  <readme>
    <ru>3cacedc1e03453464b278728e49203ffc7c0f0b4401b55361e2d16f108ea4e80</ru>
    <en>e55961d8886f61405ad4b91520771f6b66410bb0ce9e6e7ed4fbe31f6c6b7640</en>
  </readme>
  <license>b1b99f5538d1fd3702219bff50c665196dfa42f6ee755c37fe41a6178d6bc6e5</license>
  <exercise number="1">
    <scale>major</scale>
    <bpm>80</bpm>
    <lowestNote>1</lowestNote>
    <tonalities>3</tonalities>
    <notes>
      <note number="1" values="1,4,5,18" ticks="0" durationTicks="187" ppq="96" velocity="0.843"/>
      <note number="2" values="1,4,5,18" ticks="0" durationTicks="91" ppq="96" velocity="0.913"/>
    </notes>
  </exercise>
  <exercise number="2">
    <scale>major</scale>
    <bpm>80</bpm>
    <lowestNote>1</lowestNote>
    <tonalities>3</tonalities>
    <notes>
      <note number="1" values="1,4,5,18" ticks="0" durationTicks="187" ppq="96" velocity="0.843"/>
      <note number="2" values="1,4,5,18" ticks="0" durationTicks="91" ppq="96" velocity="0.913"/>
    </notes>
  </exercise>
  <exercise number="3">
    <scale>major</scale>
    <bpm>80</bpm>
    <lowestNote>1</lowestNote>
    <tonalities>3</tonalities>
    <notes>
      <note number="1" values="1,4,5,18" ticks="0" durationTicks="187" ppq="96" velocity="0.843"/>
      <note number="2" values="1,4,5,18" ticks="0" durationTicks="91" ppq="96" velocity="0.913"/>
    </notes>
  </exercise>
  <exercise number="4">
    <scale>major</scale>
    <bpm>80</bpm>
    <lowestNote>1</lowestNote>
    <tonalities>3</tonalities>
    <notes>
      <note number="1" values="1,4,5,18" ticks="0" durationTicks="187" ppq="96" velocity="0.843"/>
      <note number="2" values="1,4,5,18" ticks="0" durationTicks="91" ppq="96" velocity="0.913"/>
    </notes>
  </exercise>
  <exercise number="5">
    <scale>major</scale>
    <bpm>80</bpm>
    <lowestNote>1</lowestNote>
    <tonalities>3</tonalities>
    <notes>
      <note number="1" values="1,4,5,18" ticks="0" durationTicks="187" ppq="96" velocity="0.843"/>
      <note number="2" values="1,4,5,18" ticks="0" durationTicks="91" ppq="96" velocity="0.913"/>
      <note number="3" values="1,4,5,18" ticks="191" durationTicks="95" ppq="96" velocity="0.913"/>
      <note number="4" values="1,4,5,18" ticks="191" durationTicks="192" ppq="96" velocity="0.913"/>
    </notes>
  </exercise>
  <exercise number="6">
    <scale>major</scale>
    <bpm>80</bpm>
    <lowestNote>1</lowestNote>
    <tonalities>3</tonalities>
    <notes>
      <note number="1" values="1,4,5,18" ticks="0" durationTicks="187" ppq="96" velocity="0.843"/>
      <note number="2" values="1,4,5,18" ticks="0" durationTicks="91" ppq="96" velocity="0.913"/>
      <note number="3" values="1,4,5,18" ticks="191" durationTicks="95" ppq="96" velocity="0.913"/>
      <note number="4" values="1,4,5,18" ticks="191" durationTicks="192" ppq="96" velocity="0.913"/>
    </notes>
  </exercise>
  <exercise number="7">
    <scale>major</scale>
    <bpm>80</bpm>
    <lowestNote>1</lowestNote>
    <tonalities>3</tonalities>
    <notes>
      <note number="1" values="1,4,5,18" ticks="0" durationTicks="187" ppq="96" velocity="0.843"/>
      <note number="2" values="1,4,5,18" ticks="0" durationTicks="91" ppq="96" velocity="0.913"/>
      <note number="3" values="1,4,5,18" ticks="191" durationTicks="95" ppq="96" velocity="0.913"/>
      <note number="4" values="1,4,5,18" ticks="191" durationTicks="192" ppq="96" velocity="0.913"/>
    </notes>
  </exercise>
  <exercise number="8">
    <scale>major</scale>
    <bpm>80</bpm>
    <lowestNote>1</lowestNote>
    <tonalities>3</tonalities>
    <notes>
      <note number="1" values="1,4,5,18" ticks="0" durationTicks="187" ppq="96" velocity="0.843"/>
      <note number="2" values="1,4,5,18" ticks="0" durationTicks="91" ppq="96" velocity="0.913"/>
      <note number="3" values="1,4,5,18" ticks="191" durationTicks="95" ppq="96" velocity="0.913"/>
      <note number="4" values="1,4,5,18" ticks="191" durationTicks="192" ppq="96" velocity="0.913"/>
    </notes>
  </exercise>
  <exercise number="9">
    <scale>major</scale>
    <bpm>80</bpm>
    <lowestNote>1</lowestNote>
    <tonalities>3</tonalities>
    <notes>
      <note number="1" values="1,4,5,18" ticks="0" durationTicks="187" ppq="96" velocity="0.843"/>
      <note number="2" values="1,4,5,18" ticks="0" durationTicks="91" ppq="96" velocity="0.913"/>
      <note number="3" values="1,4,5,18" ticks="191" durationTicks="95" ppq="96" velocity="0.913"/>
      <note number="4" values="1,4,5,18" ticks="191" durationTicks="192" ppq="96" velocity="0.913"/>
    </notes>
  </exercise>
  <exercise number="10">
    <scale>major</scale>
    <bpm>80</bpm>
    <lowestNote>1</lowestNote>
    <tonalities>3</tonalities>
    <notes>
      <note number="1" values="1,4,5,18" ticks="0" durationTicks="187" ppq="96" velocity="0.843"/>
      <note number="2" values="1,4,5,18" ticks="0" durationTicks="91" ppq="96" velocity="0.913"/>
      <note number="3" values="1,4,5,18" ticks="191" durationTicks="95" ppq="96" velocity="0.913"/>
      <note number="4" values="1,4,5,18" ticks="191" durationTicks="192" ppq="96" velocity="0.913"/>
    </notes>
  </exercise>
  <exercise number="11">
    <scale>major</scale>
    <bpm>80</bpm>
    <lowestNote>1</lowestNote>
    <tonalities>3</tonalities>
    <notes>
      <note number="1" values="1,4,5,18" ticks="0" durationTicks="187" ppq="96" velocity="0.843"/>
      <note number="2" values="1,4,5,18" ticks="0" durationTicks="91" ppq="96" velocity="0.913"/>
      <note number="3" values="1,4,5,18" ticks="191" durationTicks="95" ppq="96" velocity="0.913"/>
      <note number="4" values="1,4,5,18" ticks="191" durationTicks="192" ppq="96" velocity="0.913"/>
    </notes>
  </exercise>
  <exercise number="12">
    <scale>major</scale>
    <bpm>80</bpm>
    <lowestNote>1</lowestNote>
    <tonalities>3</tonalities>
    <notes>
      <note number="1" values="1,4,5,18" ticks="0" durationTicks="187" ppq="96" velocity="0.843"/>
      <note number="2" values="1,4,5,18" ticks="0" durationTicks="91" ppq="96" velocity="0.913"/>
      <note number="3" values="1,4,5,18" ticks="191" durationTicks="95" ppq="96" velocity="0.913"/>
      <note number="4" values="1,4,5,18" ticks="191" durationTicks="192" ppq="96" velocity="0.913"/>
    </notes>
  </exercise>
</level>
